<?xml version="1.0" encoding="UTF-8"?>
<mxfile host="app.diagrams.net" modified="2025-08-17T15:40:00.000Z" agent="5.0" etag="simple" version="22.1.16" type="device">
  <diagram name="Context Diagram" id="context-diagram">
    <mxGraphModel dx="1422" dy="794" grid="1" gridSize="10" guides="1" tooltips="1" connect="1" arrows="1" fold="1" page="1" pageScale="1" pageWidth="1200" pageHeight="800" math="0" shadow="0">
      <root>
        <mxCell id="0" />
        <mxCell id="1" parent="0" />
        
        <!-- Bank System -->
        <mxCell id="bank-system" value="Банковская система" style="rounded=1;whiteSpace=wrap;html=1;fillColor=#dae8fc;strokeColor=#6c8ebf;fontSize=14;" vertex="1" parent="1">
          <mxGeometry x="400" y="300" width="200" height="80" as="geometry" />
        </mxCell>
        
        <!-- Actors -->
        <mxCell id="client" value="Клиент" style="rounded=1;whiteSpace=wrap;html=1;fillColor=#d5e8d4;strokeColor=#82b366;fontSize=12;" vertex="1" parent="1">
          <mxGeometry x="100" y="200" width="100" height="60" as="geometry" />
        </mxCell>
        
        <mxCell id="employee" value="Сотрудник" style="rounded=1;whiteSpace=wrap;html=1;fillColor=#ffe6cc;strokeColor=#d79b00;fontSize=12;" vertex="1" parent="1">
          <mxGeometry x="100" y="400" width="100" height="60" as="geometry" />
        </mxCell>
        
        <mxCell id="callcenter" value="Оператор" style="rounded=1;whiteSpace=wrap;html=1;fillColor=#f8cecc;strokeColor=#b85450;fontSize=12;" vertex="1" parent="1">
          <mxGeometry x="100" y="600" width="100" height="60" as="geometry" />
        </mxCell>
        
        <!-- External Systems -->
        <mxCell id="sms-gateway" value="СМС-шлюз" style="rounded=1;whiteSpace=wrap;html=1;fillColor=#e1d5e7;strokeColor=#9673a6;fontSize=12;" vertex="1" parent="1">
          <mxGeometry x="800" y="200" width="100" height="60" as="geometry" />
        </mxCell>
        
        <mxCell id="partner-callcenter" value="Партнер" style="rounded=1;whiteSpace=wrap;html=1;fillColor=#e1d5e7;strokeColor=#9673a6;fontSize=12;" vertex="1" parent="1">
          <mxGeometry x="800" y="400" width="100" height="60" as="geometry" />
        </mxCell>
        
        <mxCell id="website" value="Сайт" style="rounded=1;whiteSpace=wrap;html=1;fillColor=#d5e8d4;strokeColor=#82b366;fontSize=12;" vertex="1" parent="1">
          <mxGeometry x="800" y="600" width="100" height="60" as="geometry" />
        </mxCell>
        
        <!-- Simple Connections -->
        <mxCell id="edge1" value="" style="edgeStyle=orthogonalEdgeStyle;rounded=0;orthogonalLoop=1;jettySize=auto;html=1;exitX=1;exitY=0.5;exitDx=0;exitDy=0;entryX=0;entryY=0.3;entryDx=0;entryDy=0;" edge="1" parent="1" source="client" target="bank-system">
          <mxGeometry relative="1" as="geometry" />
        </mxCell>
        
        <mxCell id="edge2" value="" style="edgeStyle=orthogonalEdgeStyle;rounded=0;orthogonalLoop=1;jettySize=auto;html=1;exitX=1;exitY=0.5;exitDx=0;exitDy=0;entryX=0;entryY=0.5;entryDx=0;entryDy=0;" edge="1" parent="1" source="employee" target="bank-system">
          <mxGeometry relative="1" as="geometry" />
        </mxCell>
        
        <mxCell id="edge3" value="" style="edgeStyle=orthogonalEdgeStyle;rounded=0;orthogonalLoop=1;jettySize=auto;html=1;exitX=1;exitY=0.5;exitDx=0;exitDy=0;entryX=0;entryY=0.7;entryDx=0;entryDy=0;" edge="1" parent="1" source="callcenter" target="bank-system">
          <mxGeometry relative="1" as="geometry" />
        </mxCell>
        
        <mxCell id="edge4" value="" style="edgeStyle=orthogonalEdgeStyle;rounded=0;orthogonalLoop=1;jettySize=auto;html=1;exitX=1;exitY=0.2;exitDx=0;exitDy=0;entryX=0;entryY=0.5;entryDx=0;entryDy=0;" edge="1" parent="1" source="bank-system" target="sms-gateway">
          <mxGeometry relative="1" as="geometry" />
        </mxCell>
        
        <mxCell id="edge5" value="" style="edgeStyle=orthogonalEdgeStyle;rounded=0;orthogonalLoop=1;jettySize=auto;html=1;exitX=1;exitY=0.5;exitDx=0;exitDy=0;entryX=0;entryY=0.5;entryDx=0;entryDy=0;" edge="1" parent="1" source="bank-system" target="partner-callcenter">
          <mxGeometry relative="1" as="geometry" />
        </mxCell>
        
        <mxCell id="edge6" value="" style="edgeStyle=orthogonalEdgeStyle;rounded=0;orthogonalLoop=1;jettySize=auto;html=1;exitX=1;exitY=0.8;exitDx=0;exitDy=0;entryX=0;entryY=0.5;entryDx=0;entryDy=0;" edge="1" parent="1" source="bank-system" target="website">
          <mxGeometry relative="1" as="geometry" />
        </mxCell>
        
      </root>
    </mxGraphModel>
  </diagram>
</mxfile>
